<svg width="409" height="334" viewBox="0 0 409 334" fill="none" xmlns="http://www.w3.org/2000/svg">
<path opacity="0.1" d="M204.11 333.219C316.837 333.219 408.22 319.479 408.22 302.529C408.22 285.579 316.837 271.839 204.11 271.839C91.3831 271.839 0 285.579 0 302.529C0 319.479 91.3831 333.219 204.11 333.219Z" fill="#2B2118"/>
<path d="M279.87 219.789C279.87 219.789 253.49 228.499 252.51 230.789C252.08 231.789 247.3 234.019 242.04 236.219C242.72 233.319 242.1 229.689 241.28 228.489C241.09 228.209 240.73 227.769 240.28 227.219C242.48 222.339 244.69 216.909 247.46 212.379C252.19 204.659 251.78 195.119 251.78 195.119L254.78 184.279C254.78 184.279 259.02 164.059 259.02 162.419V141.219C259.02 141.219 259.35 138.129 259.73 134.409C263.649 131.08 266.561 126.723 268.14 121.829L265.08 118.179C265.98 117.12 266.687 115.912 267.17 114.609C267.712 113.11 267.966 111.522 267.92 109.929C267.916 109.002 267.843 108.076 267.7 107.159C267.695 107.189 267.695 107.219 267.7 107.249C267.235 104.774 266.483 102.361 265.46 100.059C263.46 95.4591 261.05 90.8791 260.83 85.8791C260.25 72.1791 276.09 62.5391 277 48.8791C277 48.5691 277 48.2491 277 47.9391C277 47.8191 277 47.7092 277 47.5992C277 47.4892 277 47.2791 277 47.1191C276.981 46.3565 276.92 45.5954 276.82 44.8392C276.815 44.869 276.815 44.8993 276.82 44.9291C275.82 38.3191 271.46 32.3091 266.25 27.9291C260.02 22.7291 252.57 19.2492 245.88 14.6492C239.19 10.0492 233.19 4.33916 225.58 1.76916C220.83 0.169156 215.75 -0.0808439 210.75 0.0191561C200.75 0.219156 191.68 2.67912 181.96 4.29912C175.2 5.41912 166.22 2.09916 160.71 7.76916C156.27 12.3492 159.32 21.0791 154.85 25.6291C152.75 27.7591 149.57 28.2992 146.95 29.7292C142.37 32.2392 139.95 37.2991 139.34 42.6291C139.34 42.6291 139.34 42.5391 139.34 42.4991C139.34 42.7891 139.29 43.0892 139.27 43.3892C139.27 43.7592 139.27 44.1191 139.21 44.4891C139.15 44.8591 139.21 45.1092 139.21 45.4192V45.7192C139.226 46.8037 139.313 47.886 139.47 48.9592C140.56 56.2192 144.17 62.8092 146.75 69.6692C149.33 76.5292 150.85 84.4292 147.75 91.0892C145.75 95.5092 141.84 98.8692 139.75 103.279C138.913 105.101 138.376 107.046 138.16 109.039C138.16 109.039 138.16 108.949 138.16 108.909C138.16 109.139 138.16 109.359 138.11 109.589C136.257 111.519 134.736 113.742 133.61 116.169C131.21 121.489 128.2 122.689 127.44 122.919H127.07C127.07 122.919 125.7 131.469 132.82 136.919C133.01 140.139 133.42 143.139 134.26 144.829C134.92 146.149 135.26 149.529 135.32 153.759C135.32 153.939 135.32 154.129 135.32 154.319L134.58 153.699C134.58 153.699 125.58 131.019 125.13 126.749C124.68 122.479 120.73 116.169 120.73 116.169C120.73 116.169 107.57 98.6691 90.49 98.0091C73.41 97.3491 92.12 105.899 92.12 105.899C92.12 105.899 85.28 123.319 105.8 129.729C105.8 129.729 111.01 136.139 111.8 141.229C112.59 146.319 118.8 164.399 118.8 164.399C118.8 164.399 126.13 192.669 141.68 203.019C141.68 203.019 146.57 203.249 150.02 200.299C151.958 199.215 153.658 197.753 155.02 195.999C154.632 197.78 153.956 199.485 153.02 201.049C147.81 208.939 147.81 212.229 147.81 212.229C147.81 212.229 150.25 217.319 146.02 218.639C141.79 219.959 143.41 224.549 143.41 224.549C143.41 224.549 139.06 227.769 138.33 230.739C128.87 224.499 115.97 215.739 112.96 212.389C108.07 206.969 74.3599 215.759 86.8999 240.949C86.8999 240.949 94.72 256.949 106.77 265.639C108.14 266.639 109.44 267.639 110.69 268.689C112.771 271.494 115.326 273.913 118.24 275.839C120.07 277.839 121.63 279.639 122.89 281.199C122.823 281.24 122.759 281.287 122.7 281.339L122.4 281.589L122.2 281.769C122.09 281.869 121.99 281.969 121.89 282.079L121.71 282.259C121.59 282.379 121.48 282.519 121.37 282.649C121.326 282.708 121.28 282.765 121.23 282.819C121.08 283.009 120.92 283.219 120.77 283.439C115.77 290.779 113.28 308.529 113.28 308.529C113.28 308.529 114.15 315.759 125.55 316.309C126.617 316.31 127.68 316.169 128.71 315.889C128.895 315.847 129.068 315.764 129.217 315.647C129.366 315.529 129.487 315.38 129.57 315.209C129.89 314.119 144.99 309.959 155.74 311.209C166.49 312.459 171.91 310.989 171.91 310.989C171.91 310.989 172.68 309.429 173.53 307.259L190.49 302.649L191.59 302.359C199.59 305.019 207.12 307.709 207.12 307.709C207.12 307.709 216.89 313.619 219 314.279C220.4 314.719 225 314.579 227.95 314.429C228.15 315.589 228.29 316.309 228.29 316.309C228.29 316.309 235.99 316.859 239.58 317.399C243.17 317.939 266.58 315.319 275.4 319.819C275.4 319.819 275.82 319.899 276.54 320.009C281.45 320.759 300.54 322.579 299.83 305.569C298.96 286.069 282.89 283.879 282.89 283.879C278.75 283.5 274.578 283.665 270.48 284.369C278.48 279.369 289.98 272.029 299.62 264.979C310.23 257.209 312.06 251.649 312.01 248.659C311.93 245.815 312.04 242.969 312.34 240.139C316.23 206.179 279.87 219.789 279.87 219.789ZM230.54 203.019C231.239 201.972 231.658 200.764 231.76 199.509C231.215 202.298 230.39 205.025 229.3 207.649C229.34 205.309 229.49 204.119 230.49 203.019H230.54ZM232.17 195.129C232.17 195.129 232.36 192.859 232.78 190.239C232.53 192.409 232.3 194.419 232.12 196.039C232.15 195.489 232.16 195.129 232.16 195.129H232.17Z" fill="url(#paint0_linear)"/>
<path d="M160.7 11.2893C156.26 15.8193 159.31 24.4793 154.84 28.9793C152.74 31.0893 149.56 31.6293 146.94 33.0493C140.54 36.5193 138.34 44.9093 139.44 52.0493C140.54 59.1893 144.14 65.7693 146.72 72.5793C149.3 79.3893 150.82 87.1993 147.72 93.7993C145.72 98.1793 141.81 101.509 139.72 105.879C136.63 112.459 138.09 120.269 140.65 127.069C143.36 134.259 147.75 141.499 154.9 144.309C159.96 146.309 165.62 145.759 170.96 146.769C178.88 148.279 186.14 153.189 194.2 153.039C202.04 152.899 208.93 148.039 214.86 142.859C220.79 137.679 226.6 131.999 234.05 129.569C239.94 127.649 246.3 127.989 252.4 126.959C258.5 125.929 264.97 122.959 267.12 117.109C268.85 112.459 267.35 107.249 265.39 102.689C263.43 98.1293 260.98 93.5993 260.76 88.6893C260.18 75.1093 276.02 65.5593 276.93 52.0093C277.47 43.9393 272.41 36.4293 266.18 31.2693C259.95 26.1093 252.5 22.6593 245.81 18.1093C239.12 13.5593 233.12 7.87931 225.51 5.33931C220.722 3.9204 215.727 3.32526 210.74 3.5793C200.74 3.7793 191.67 6.21929 181.95 7.81929C175.19 8.95929 166.21 5.66932 160.7 11.2893Z" fill="#2B2118"/>
<g opacity="0.1">
<path opacity="0.1" d="M146.72 72.3892C148.021 75.6864 148.888 79.1386 149.3 82.6592C149.88 77.5292 148.58 72.0892 146.72 67.1692C144.13 60.3692 140.52 53.8492 139.43 46.6492C139.38 46.3392 139.35 46.0192 139.32 45.6492C139.091 47.6987 139.128 49.7691 139.43 51.8091C140.49 59.0591 144.13 65.5792 146.72 72.3892Z" fill="black"/>
<path opacity="0.1" d="M267.18 111.709C265.03 117.509 258.56 120.529 252.46 121.559C246.36 122.589 239.99 122.249 234.11 124.169C226.65 126.599 220.84 132.329 214.91 137.459C208.98 142.589 202.09 147.459 194.25 147.639C186.19 147.779 178.94 142.869 171.02 141.369C165.68 140.369 160.02 140.889 154.96 138.899C147.81 136.089 143.41 128.899 140.71 121.669C139.436 118.405 138.586 114.99 138.18 111.509C137.61 116.599 138.87 121.999 140.71 126.879C143.41 134.069 147.81 141.309 154.96 144.109C160.02 146.109 165.68 145.569 171.02 146.579C178.94 148.079 186.19 152.999 194.25 152.849C202.09 152.709 208.99 147.849 214.91 142.669C220.83 137.489 226.65 131.809 234.11 129.379C239.99 127.459 246.35 127.799 252.46 126.769C258.57 125.739 265.03 122.719 267.18 116.919C267.97 114.621 268.152 112.158 267.71 109.769C267.581 110.428 267.404 111.076 267.18 111.709V111.709Z" fill="black"/>
<path opacity="0.1" d="M260.82 83.2292C260.848 83.8623 260.911 84.4932 261.01 85.1191C262.79 73.2391 276.15 64.1892 277.01 51.7592C277.083 50.5036 277.029 49.244 276.85 47.9991C274.96 60.7991 260.25 70.1492 260.82 83.2292Z" fill="black"/>
</g>
<path d="M127.28 125.449C127.28 125.449 124.16 144.629 151.54 143.529C178.92 142.429 138.03 124.059 138.03 124.059L127.28 125.449Z" fill="#2B2118"/>
<path opacity="0.1" d="M137.85 124.059L127.09 125.449C127.09 125.449 123.97 144.629 151.36 143.529" fill="black"/>
<path d="M268.15 124.309C268.15 124.309 262.49 144.869 239.49 141.829L236.28 132.349L258.39 122.289L268.15 124.309Z" fill="#2B2118"/>
<path opacity="0.1" d="M258.35 122.289L268.15 124.289C268.15 124.289 262.49 144.869 239.49 141.829" fill="black"/>
<path d="M158.71 187.009C158.51 194.579 154.71 198.799 151.8 200.929C150.776 201.705 149.648 202.334 148.45 202.799L134.28 184.889C134.28 184.889 135.58 167.329 135.34 155.959C135.25 151.769 134.94 148.419 134.28 147.109C132.68 143.899 132.62 135.939 132.76 130.839C132.84 128.159 132.98 126.259 132.98 126.259L151.54 143.579C151.54 143.579 151.62 143.879 151.75 144.419C152.94 149.429 159 175.839 158.71 187.009Z" fill="#FFB9B9"/>
<path d="M181.68 255.559H162.46V272.499H181.68V255.559Z" fill="#4A4A76"/>
<path d="M228.41 70.9993H167.12V120.939H228.41V70.9993Z" fill="#2B2118"/>
<path opacity="0.1" d="M224.23 53.4092H167.12V120.939H224.23V53.4092Z" fill="black"/>
<path d="M179.72 82.2892C179.72 82.2892 191.12 103.139 172.72 104.289C154.32 105.439 169.63 141.909 169.63 141.909C169.63 141.909 192.27 156.909 192.76 156.909C193.25 156.909 211.48 157.069 211.97 156.749C212.46 156.429 226.49 138.969 226.49 138.969L228.44 118.769L223.44 102.769C223.44 102.769 204.06 111.079 209.44 80.4592L179.72 82.2892Z" fill="#FFB9B9"/>
<path d="M312.3 241.579C312 244.382 311.89 247.202 311.97 250.019C311.97 253.019 310.19 258.489 299.58 266.189C282.96 278.189 260.73 291.269 260.73 291.269L220.73 305.109L207.83 299.109L198.74 294.859L196.31 276.039L194.18 259.529L227.73 243.239C227.73 243.239 251.49 234.579 252.49 232.279C253.49 229.979 279.85 221.369 279.85 221.369C279.85 221.369 316.23 207.879 312.3 241.579Z" fill="#FFB9B9"/>
<path d="M238.18 238.789L235.3 242.789L232.97 245.999C218.31 246.999 196.5 280.359 196.5 280.359L180.5 267.169C170.263 253.959 156.725 243.681 141.25 237.369L141.43 237.049L144.84 230.849L194.67 224.989L238.18 238.789Z" fill="#454851"/>
<path opacity="0.1" d="M238.18 238.789L235.3 242.789C228.47 242.379 216.52 241.109 216.52 241.109C216.52 241.109 210.66 244.699 207.52 243.389C204.38 242.079 165.02 242.739 160.3 239.649C156.63 237.239 146.57 238.079 141.42 237.049L144.83 230.849L194.66 224.989L238.18 238.789Z" fill="black"/>
<path d="M241.28 132.579L240.14 143.319C244.86 157.979 235.14 172.369 235.14 172.369C235.14 172.369 236.6 182.369 234.81 185.009C233.02 187.649 232.21 196.899 232.21 196.899C232.21 196.899 232.04 203.249 230.58 204.719C229.12 206.189 229.44 207.809 229.27 212.209C229.14 215.719 235.98 223.599 239.48 227.709C240.36 228.709 241.03 229.539 241.33 229.959C242.79 232.079 243.61 241.689 237.74 241.519L236.26 241.459C234.92 241.389 233.26 241.279 231.57 241.149C224.86 240.609 216.57 239.729 216.57 239.729C215.791 240.192 214.986 240.609 214.16 240.979C212.16 241.859 209.43 242.769 207.61 241.979C204.52 240.679 165.11 241.329 160.39 238.239C156.87 235.929 147.46 236.609 142.16 235.749C140.35 235.459 139.02 234.989 138.57 234.159C136.77 230.909 143.45 226.019 143.45 226.019C143.45 226.019 141.82 221.459 146.06 220.159C150.3 218.859 147.85 213.809 147.85 213.809C147.85 213.809 147.85 210.549 153.06 202.729C158.27 194.909 155.99 172.439 155.99 172.439C143.94 156.319 151.59 143.439 151.59 143.439L141.82 108.909L147.52 103.699L174.52 104.009L172.42 115.259C169.49 136.259 197.99 145.259 197.99 145.259C224.53 146.069 218.99 116.919 218.99 116.919L215.27 103.389C215.27 103.389 221.76 101.119 235.77 99.4993C242.42 98.7193 245.25 99.6793 246.39 100.889C247.931 102.561 249.655 104.054 251.53 105.339C252.779 106.201 253.889 107.25 254.82 108.449L245.82 124.449L241.28 132.579Z" fill="#DF7373"/>
<path d="M177.57 263.459L156.15 289.389L149.92 296.929L126.49 286.999C121.059 279.245 114.406 272.423 106.79 266.799C94.79 258.169 86.92 242.339 86.92 242.339C74.38 217.339 108.09 208.669 112.98 214.039C117.87 219.409 148.81 238.959 148.81 238.959C154.23 240.359 162.14 247.329 168.3 253.469C173.57 258.769 177.57 263.459 177.57 263.459Z" fill="#FFB9B9"/>
<path opacity="0.1" d="M194.86 92.4692C211.903 92.4692 225.72 78.6528 225.72 61.6093C225.72 44.5657 211.903 30.7493 194.86 30.7493C177.816 30.7493 164 44.5657 164 61.6093C164 78.6528 177.816 92.4692 194.86 92.4692Z" fill="black"/>
<path d="M194.86 91.8192C211.903 91.8192 225.72 78.0027 225.72 60.9592C225.72 43.9157 211.903 30.0991 194.86 30.0991C177.816 30.0991 164 43.9157 164 60.9592C164 78.0027 177.816 91.8192 194.86 91.8192Z" fill="#FFB9B9"/>
<path opacity="0.1" d="M139.74 186.029C137.89 187.379 141.45 183.749 141.45 183.749L134.28 184.889C134.28 184.889 135.58 167.329 135.34 155.959C144.91 163.509 152.2 184.889 152.2 184.889C155.17 193.279 142.05 183.229 139.74 186.029Z" fill="black"/>
<path d="M151.54 184.889C151.54 184.889 144.22 163.389 134.61 155.889C134.61 155.889 125.61 133.419 125.16 129.179C124.71 124.939 120.76 118.699 120.76 118.699C120.76 118.699 107.57 101.339 90.47 100.699C73.37 100.059 92.1 108.509 92.1 108.509C92.1 108.509 85.26 125.769 105.78 132.129C105.78 132.129 110.99 138.479 111.78 143.529C112.57 148.579 118.78 166.529 118.78 166.529C118.78 166.529 126.11 194.529 141.66 204.799C141.69 204.759 158.87 205.579 151.54 184.889Z" fill="#FFB9B9"/>
<path opacity="0.1" d="M229.22 212.249C229.09 215.759 235.93 223.639 239.43 227.749C238.007 231.168 236.256 234.44 234.2 237.519L234.11 237.649L231.49 241.189C229.87 243.429 228.14 245.879 226.63 247.989C224.39 251.159 222.68 253.609 222.68 253.609C222.68 253.609 209.16 289.279 205.58 280.159C204.33 276.941 203.754 273.5 203.89 270.049C204.08 262.949 206.89 254.579 212.42 244.169C213 243.089 213.55 242.029 214.08 241.019C215.72 237.859 217.08 235.019 218.32 232.479C220.455 228.07 222.344 223.547 223.98 218.929C223.98 218.929 229.39 207.849 229.22 212.249Z" fill="black"/>
<path d="M260.49 129.399C260 135.169 259.08 143.529 259.08 143.529V164.529C259.08 166.159 254.84 186.189 254.84 186.189L251.84 196.939C251.84 196.939 252.25 206.389 247.52 214.039C242.79 221.689 239.71 231.949 235.47 237.649C231.23 243.349 224.07 253.649 224.07 253.649C224.07 253.649 210.49 289.279 206.91 280.159C203.33 271.039 205.28 259.959 213.75 244.159C222.22 228.359 225.32 218.919 225.32 218.919C225.32 218.919 231.32 205.429 231.76 201.179C232.2 196.929 235.09 172.399 235.09 172.399C235.09 172.399 240.58 156.469 239.46 138.979C239.46 138.319 240.87 137.669 240.81 136.979C239 118.739 260.65 124.029 260.65 124.029C260.782 125.82 260.729 127.62 260.49 129.399V129.399Z" fill="#FFB9B9"/>
<path opacity="0.1" d="M205.97 280.319C202.22 286.079 249.58 287.159 242.41 287.809C239.845 288.18 237.307 288.714 234.81 289.409C221.39 292.799 197.3 300.349 197.3 300.349L194.09 301.209L171.09 307.349L172.78 295.029L174.18 284.879L191.61 276.249C191.61 276.249 193.87 275.249 196.74 273.849C201.65 271.529 208.33 268.299 208.54 267.779C208.87 266.969 225.64 255.889 225.64 255.889C230.36 251.499 267.33 234.559 267.33 234.559C311.68 224.909 209.71 274.579 205.97 280.319Z" fill="black"/>
<path opacity="0.1" d="M288.66 271.099C284.92 276.859 249.58 289.099 242.41 289.769C239.846 290.14 237.308 290.671 234.81 291.359V291.359C227.15 293.299 216.01 296.589 207.81 299.059L198.72 294.809L196.29 275.989L196.69 275.809C201.6 273.489 208.28 270.249 208.49 269.739C208.82 268.919 238.13 266.479 238.13 266.479C242.85 262.079 267.28 236.479 267.28 236.479C252.84 265.659 292.41 265.339 288.66 271.099Z" fill="black"/>
<path d="M288.66 270.449C284.92 276.199 249.58 288.449 242.41 289.119C239.845 289.485 237.307 290.016 234.81 290.709V290.709C233.27 291.099 231.59 291.539 229.81 292.029C216.17 295.739 197.29 301.649 197.29 301.649L194.08 302.509L190.44 303.509L173.49 308.009L171.06 308.659L172.46 298.459L172.75 296.329L172.93 295.029L174.15 286.189L191.61 277.579C191.61 277.579 192.84 277.019 194.61 276.169L196.71 275.169C201.62 272.849 208.3 269.609 208.51 269.089C208.84 268.279 225.61 257.209 225.61 257.209C230.33 252.809 267.3 235.869 267.3 235.869C311.68 226.219 292.41 264.689 288.66 270.449Z" fill="#FFB9B9"/>
<path d="M175.8 299.189C175.74 301.879 174.56 305.389 173.52 308.009C172.67 310.159 171.9 311.699 171.9 311.699C171.9 311.699 166.47 313.109 155.73 311.909C144.99 310.709 129.88 314.849 129.56 315.909C129.47 316.209 129.14 316.419 128.7 316.579C127.669 316.853 126.607 316.99 125.54 316.989C114.14 316.449 113.27 309.289 113.27 309.289C113.27 309.289 115.77 291.699 120.76 284.419C121.678 283.016 122.994 281.919 124.54 281.269C129.25 279.349 134.54 282.689 134.54 282.689C135.687 283.431 136.928 284.016 138.23 284.429V284.429C146.8 287.679 167.01 293.189 172.94 294.999L173.83 295.269C175.34 295.789 175.84 297.279 175.8 299.189Z" fill="#AF9164"/>
<path opacity="0.1" d="M124.35 302.789C124.35 302.789 119.88 314.019 128.7 316.599C127.669 316.873 126.607 317.01 125.54 317.009C114.14 316.469 113.27 309.309 113.27 309.309C113.27 309.309 115.77 291.719 120.76 284.439C125.75 277.159 134.55 282.709 134.55 282.709C135.697 283.451 136.938 284.036 138.24 284.449C138.24 284.449 126.09 286.069 124.35 302.789Z" fill="black"/>
<path opacity="0.1" d="M197.96 209.149C197.96 209.149 227.27 203.699 227.68 205.409C228.09 207.119 197.96 209.149 197.96 209.149Z" fill="black"/>
<path opacity="0.1" d="M207.24 213.709C207.24 213.709 224.91 210.129 225.07 211.709C225.23 213.289 207.24 213.709 207.24 213.709Z" fill="black"/>
<path opacity="0.1" d="M148.86 228.579C148.86 228.579 183.46 234.679 189 235.899C194.54 237.119 213.43 235.899 213.43 235.899C213.43 235.899 189.16 235.579 186.43 233.619C183.7 231.659 148.86 228.579 148.86 228.579Z" fill="black"/>
<path opacity="0.1" d="M198.36 248.399C198.36 248.399 210.36 247.019 209.36 248.399C208.36 249.779 198.36 248.399 198.36 248.399Z" fill="black"/>
<path opacity="0.1" d="M192.99 267.209C192.99 267.209 203.25 258.009 203.33 259.309C203.41 260.609 192.99 267.209 192.99 267.209Z" fill="black"/>
<path opacity="0.1" d="M177.57 263.459L156.15 289.389C153.547 288.434 150.872 287.688 148.15 287.159C139.36 285.699 113.95 277.879 109.23 264.519C109.23 264.519 209.33 291.519 205.91 288.789C202.49 286.059 85.46 210.129 129.1 229.349C129.1 229.349 154.36 242.229 168.3 253.469C173.57 258.769 177.57 263.459 177.57 263.459Z" fill="black"/>
<path opacity="0.1" d="M231.18 313.709C231.18 313.709 221.73 314.359 219.62 313.709C217.51 313.059 207.73 307.189 207.73 307.189C207.73 307.189 201.38 304.929 194.09 302.509C185.97 299.819 176.69 296.939 173.69 296.769L172.78 296.329L174.18 286.179L191.61 277.579C191.61 277.579 193.87 276.579 196.74 275.189L202.52 279.049C202.52 279.049 216.03 288.329 220.1 288.659C223.68 288.939 232.4 290.479 234.81 290.739C235.009 290.765 235.211 290.765 235.41 290.739C235.9 290.579 231.18 313.709 231.18 313.709Z" fill="black"/>
<path opacity="0.1" d="M229.82 292.029C216.18 295.739 197.3 301.649 197.3 301.649L194.09 302.509L190.45 303.509C184.96 301.719 179.35 300.009 175.8 299.209C174.892 298.987 173.97 298.83 173.04 298.739L172.49 298.479C169.49 297.059 155.32 290.479 147.49 289.139C139.525 287.588 131.81 284.953 124.56 281.309C129.27 279.389 134.56 282.729 134.56 282.729C135.707 283.471 136.948 284.056 138.25 284.469V284.469C146.82 287.719 167.03 293.229 172.96 295.039L174.18 286.199L191.61 277.579C191.61 277.579 192.84 277.019 194.61 276.169L201.83 280.999C201.83 280.999 215.38 290.259 219.49 290.579C221.78 290.769 226.29 291.489 229.82 292.029Z" fill="black"/>
<path d="M128.42 230.649C128.42 230.649 167.67 250.649 175.32 262.569L201.86 280.319C201.86 280.319 215.38 289.579 219.49 289.929C223.6 290.279 234.31 292.209 234.8 292.049C235.29 291.889 230.57 315.049 230.57 315.049C230.57 315.049 221.12 315.699 219 315.049C216.88 314.399 207.12 308.529 207.12 308.529C207.12 308.529 178.78 298.439 173.12 298.109C173.12 298.109 156.35 289.969 147.55 288.499C138.75 287.029 113.35 279.219 108.63 265.869C108.63 265.869 102.93 258.539 99.5099 255.769C96.0899 252.999 84.7698 211.429 128.42 230.649Z" fill="#FFB9B9"/>
<path d="M276.49 320.689C275.77 320.579 275.35 320.489 275.35 320.489C266.56 316.039 243.11 318.639 239.53 318.099C235.95 317.559 228.24 317.009 228.24 317.009C228.24 317.009 224.24 295.629 226.82 294.869C228.433 294.376 229.893 293.477 231.06 292.259C235.29 289.659 258.85 288.899 261.89 288.789C262.903 288.815 263.901 288.533 264.75 287.979V287.979C265.061 287.778 265.311 287.494 265.47 287.159C271.11 283.689 282.83 284.879 282.83 284.879C282.83 284.879 298.9 287.049 299.77 306.379C300.55 323.239 281.41 321.419 276.49 320.689Z" fill="#AF9164"/>
<path opacity="0.1" d="M276.49 320.689C292.04 316.379 290.12 306.049 290.12 306.049C285.93 285.439 265.22 287.919 264.76 287.979C265.071 287.778 265.321 287.494 265.48 287.159C271.12 283.689 282.84 284.879 282.84 284.879C282.84 284.879 298.91 287.049 299.78 306.379C300.55 323.239 281.41 321.419 276.49 320.689Z" fill="black"/>
<path opacity="0.1" d="M260.49 129.399L239.49 138.989C239.49 138.329 240.9 137.679 240.84 136.989C239.03 118.749 260.68 124.039 260.68 124.039C260.802 125.828 260.738 127.624 260.49 129.399V129.399Z" fill="black"/>
<path d="M251.86 108.999L254.79 108.509L268.15 124.309L237.04 139.609L235.41 124.789L242.74 116.159L251.86 108.999Z" fill="#DF7373"/>
<path opacity="0.1" d="M151.75 144.369L151.54 144.829L132.76 130.829C132.84 128.149 132.98 126.249 132.98 126.249L151.54 143.579C151.54 143.579 151.62 143.829 151.75 144.369Z" fill="black"/>
<path d="M147.31 108.999H141.77C138.298 111.515 135.501 114.851 133.63 118.709C130.86 124.799 127.28 125.449 127.28 125.449L151.54 143.579L156.1 133.149L147.31 108.999Z" fill="#DF7373"/>
<path opacity="0.1" d="M165.99 36.3693C165.01 38.4311 164.414 40.6539 164.23 42.9293C164.148 44.0682 164.371 45.2083 164.876 46.2328C165.38 47.2572 166.148 48.1292 167.1 48.7593C168.059 49.2401 169.108 49.516 170.18 49.5693C175.48 50.0793 180.74 48.5693 186 47.6993C192.43 46.6993 199.29 46.6993 205.19 49.4193C208.48 50.9693 211.32 53.2993 214.26 55.4193C217.2 57.5393 220.36 59.5593 223.93 60.2793C227.5 60.9993 231.55 60.2093 233.93 57.4793C235.99 55.1293 236.51 51.7893 236.42 48.6693C236.011 40.1707 232.28 32.1728 226.03 26.3993C219.773 20.701 211.968 16.9845 203.6 15.7193C200.32 15.0127 196.93 14.9908 193.642 15.655C190.354 16.3192 187.238 17.6552 184.49 19.5793C178.989 22.9906 174.198 27.4318 170.38 32.6593C169.317 34.2921 168.087 35.8102 166.71 37.1893C166.019 37.8797 165.189 38.4152 164.275 38.7601C163.361 39.1049 162.385 39.2512 161.41 39.1893" fill="black"/>
<path d="M165.99 35.0693C165.009 37.1307 164.413 39.3538 164.23 41.6293C164.151 42.768 164.374 43.9073 164.879 44.9314C165.383 45.9555 166.149 46.8277 167.1 47.4593C168.059 47.9402 169.108 48.216 170.18 48.2693C175.48 48.7693 180.74 47.2693 186 46.3993C192.43 45.3493 199.29 45.3393 205.19 48.1193C208.48 49.6593 211.32 51.9993 214.26 54.1193C217.2 56.2393 220.36 58.2593 223.93 58.9793C227.5 59.6993 231.55 58.9093 233.93 56.1693C235.99 53.8293 236.51 50.4893 236.42 47.3593C236.009 38.8642 232.277 30.8704 226.03 25.0993C219.775 19.3975 211.969 15.6805 203.6 14.4193C200.322 13.7099 196.933 13.6847 193.644 14.3455C190.356 15.0062 187.24 16.3387 184.49 18.2593C178.984 21.6647 174.192 26.107 170.38 31.3393C169.317 32.9721 168.087 34.4902 166.71 35.8693C166.019 36.5598 165.189 37.0952 164.275 37.4401C163.361 37.7849 162.385 37.9312 161.41 37.8693" fill="#2B2118"/>
<path d="M136.37 291.189C136.751 291.189 137.06 290.88 137.06 290.499C137.06 290.118 136.751 289.809 136.37 289.809C135.989 289.809 135.68 290.118 135.68 290.499C135.68 290.88 135.989 291.189 136.37 291.189Z" fill="white"/>
<path d="M133.6 311.789C133.981 311.789 134.29 311.48 134.29 311.099C134.29 310.718 133.981 310.409 133.6 310.409C133.219 310.409 132.91 310.718 132.91 311.099C132.91 311.48 133.219 311.789 133.6 311.789Z" fill="white"/>
<path d="M144.84 291.879C145.221 291.879 145.53 291.57 145.53 291.189C145.53 290.808 145.221 290.499 144.84 290.499C144.459 290.499 144.15 290.808 144.15 291.189C144.15 291.57 144.459 291.879 144.84 291.879Z" fill="white"/>
<path d="M140.44 311.789C140.821 311.789 141.13 311.48 141.13 311.099C141.13 310.718 140.821 310.409 140.44 310.409C140.059 310.409 139.75 310.718 139.75 311.099C139.75 311.48 140.059 311.789 140.44 311.789Z" fill="white"/>
<path d="M140.44 291.879C140.821 291.879 141.13 291.57 141.13 291.189C141.13 290.808 140.821 290.499 140.44 290.499C140.059 290.499 139.75 290.808 139.75 291.189C139.75 291.57 140.059 291.879 140.44 291.879Z" fill="white"/>
<path d="M136.37 311.789C136.751 311.789 137.06 311.48 137.06 311.099C137.06 310.718 136.751 310.409 136.37 310.409C135.989 310.409 135.68 310.718 135.68 311.099C135.68 311.48 135.989 311.789 136.37 311.789Z" fill="white"/>
<path d="M244.45 293.249C244.831 293.249 245.14 292.94 245.14 292.559C245.14 292.178 244.831 291.869 244.45 291.869C244.069 291.869 243.76 292.178 243.76 292.559C243.76 292.94 244.069 293.249 244.45 293.249Z" fill="white"/>
<path d="M257.04 293.939C257.421 293.939 257.73 293.63 257.73 293.249C257.73 292.868 257.421 292.559 257.04 292.559C256.659 292.559 256.35 292.868 256.35 293.249C256.35 293.63 256.659 293.939 257.04 293.939Z" fill="white"/>
<path d="M269.64 293.939C270.021 293.939 270.33 293.63 270.33 293.249C270.33 292.868 270.021 292.559 269.64 292.559C269.259 292.559 268.95 292.868 268.95 293.249C268.95 293.63 269.259 293.939 269.64 293.939Z" fill="white"/>
<path d="M278.11 314.599C278.491 314.599 278.8 314.29 278.8 313.909C278.8 313.528 278.491 313.219 278.11 313.219C277.729 313.219 277.42 313.528 277.42 313.909C277.42 314.29 277.729 314.599 278.11 314.599Z" fill="white"/>
<path d="M250.96 293.939C251.341 293.939 251.65 293.63 251.65 293.249C251.65 292.868 251.341 292.559 250.96 292.559C250.579 292.559 250.27 292.868 250.27 293.249C250.27 293.63 250.579 293.939 250.96 293.939Z" fill="white"/>
<path d="M263.45 293.939C263.831 293.939 264.14 293.63 264.14 293.249C264.14 292.868 263.831 292.559 263.45 292.559C263.069 292.559 262.76 292.868 262.76 293.249C262.76 293.63 263.069 293.939 263.45 293.939Z" fill="white"/>
<path d="M274.96 294.639C275.341 294.639 275.65 294.33 275.65 293.949C275.65 293.568 275.341 293.259 274.96 293.259C274.579 293.259 274.27 293.568 274.27 293.949C274.27 294.33 274.579 294.639 274.96 294.639Z" fill="white"/>
<path d="M267.14 315.289C267.521 315.289 267.83 314.98 267.83 314.599C267.83 314.218 267.521 313.909 267.14 313.909C266.759 313.909 266.45 314.218 266.45 314.599C266.45 314.98 266.759 315.289 267.14 315.289Z" fill="white"/>
<path d="M272.9 315.289C273.281 315.289 273.59 314.98 273.59 314.599C273.59 314.218 273.281 313.909 272.9 313.909C272.519 313.909 272.21 314.218 272.21 314.599C272.21 314.98 272.519 315.289 272.9 315.289Z" fill="white"/>
<path opacity="0.1" d="M238.18 293.949C238.18 293.949 246.95 304.579 240 314.579Z" fill="black"/>
<path opacity="0.1" d="M162.49 295.889C162.49 295.889 156.22 303.769 161.11 310.409Z" fill="black"/>
<path d="M235.22 172.199C235.14 172.339 235.09 172.409 235.09 172.409C234.646 172.175 234.293 171.798 234.09 171.339C231.17 165.559 235.38 140.849 235.38 140.849L238.27 142.689L239.06 143.189C243.97 156.669 236.3 170.359 235.22 172.199Z" fill="#DF7373"/>
<path opacity="0.1" d="M192.99 169.079C192.99 169.079 188.32 176.679 185.28 176.679C185.28 176.679 192.49 171.029 192.99 169.079Z" fill="black"/>
<path opacity="0.1" d="M202.32 169.079C202.32 169.079 206.99 176.679 210.03 176.679C210.03 176.679 202.87 171.029 202.32 169.079Z" fill="black"/>
<g opacity="0.1">
<path opacity="0.1" d="M164.27 35.6394C163.946 35.831 163.613 36.0046 163.27 36.1594L160.49 37.8494C161.631 37.9668 162.782 37.7478 163.8 37.2194C163.9 36.6894 164.08 36.1594 164.27 35.6394Z" fill="black"/>
<path opacity="0.1" d="M165 35.0693L164.33 35.4794L164.27 35.6393C164.501 35.5043 164.724 35.3575 164.94 35.1993L165 35.0693Z" fill="black"/>
<path opacity="0.1" d="M235.49 47.3394C235.559 50.07 234.675 52.7394 232.99 54.8894C230.59 57.6194 226.53 58.4194 222.99 57.6994C219.45 56.9794 216.26 54.9694 213.32 52.8294C210.38 50.6894 207.54 48.3594 204.25 46.8294C198.34 44.0594 191.49 44.0594 185.06 45.1094C179.8 45.9694 174.54 47.4894 169.24 46.9894C168.167 46.9374 167.117 46.658 166.16 46.1694C165.316 45.6285 164.616 44.891 164.12 44.0201C163.623 43.1493 163.346 42.1712 163.31 41.1694C163.31 41.3094 163.31 41.4594 163.31 41.6094C163.231 42.7481 163.454 43.8875 163.959 44.9116C164.463 45.9356 165.229 46.8078 166.18 47.4394C167.139 47.9202 168.188 48.1961 169.26 48.2494C174.56 48.7494 179.82 47.2494 185.08 46.3794C191.51 45.3294 198.36 45.3194 204.27 48.0994C207.56 49.6394 210.4 51.9794 213.34 54.0994C216.28 56.2194 219.44 58.2394 223.01 58.9594C226.58 59.6794 230.63 58.8894 233.01 56.1494C235.08 53.8094 235.6 50.4694 235.51 47.3394H235.49Z" fill="black"/>
</g>
<defs>
<linearGradient id="paint0_linear" x1="197.94" y1="320.459" x2="197.94" y2="0.00916815" gradientUnits="userSpaceOnUse">
<stop stop-color="#808080" stop-opacity="0.25"/>
<stop offset="0.54" stop-color="#808080" stop-opacity="0.12"/>
<stop offset="1" stop-color="#808080" stop-opacity="0.1"/>
</linearGradient>
</defs>
</svg>
