<svg width="600" height="600" viewBox="0 0 600 600" fill="none" xmlns="http://www.w3.org/2000/svg">
<path d="M76.3472 156.489C172.585 18.8832 242.358 43.7446 321.755 22.0629C401.152 0.381287 549.29 -37.7784 549.29 96.9368C549.29 231.652 663.388 365.658 549.29 480.846C412.338 619.107 -28.138 659.077 1.41899 480.846C47.6707 201.945 -19.891 294.095 76.3472 156.489Z" fill="#F7F3E3"/>
<path d="M163.5 210C66.3 241.6 140.833 311 170.5 331C200.167 351 50 390.5 50 390.5" stroke="black" stroke-width="10" stroke-linecap="round"/>
<path d="M360.041 243.69C360.041 243.69 330.386 218.209 307.041 214.19C288.085 210.926 249.274 250.703 232.541 260.19C196.36 280.702 222.541 271.69 232.542 341.69C242.542 411.69 260.541 373.19 295.541 383.19C330.541 393.19 360.041 370.69 360.041 370.69" stroke="black" stroke-width="10" stroke-linecap="round"/>
<path d="M426 217C426 217 426 267.739 426 300.25M426 383.5C426 350.989 426 332.761 426 300.25M426 300.25C459.976 294.88 493.39 314.76 513 286.5C528.473 264.201 513 217 513 217C513 217 513 318.478 513 383.5" stroke="black" stroke-width="10" stroke-linecap="round" stroke-linejoin="round"/>
</svg>
