<svg width="2501" height="2021" viewBox="0 0 2501 2021" fill="none" xmlns="http://www.w3.org/2000/svg">
<path d="M135.59 1708.53C135.59 1607.42 113.442 1485.72 87.2669 1354.89C83.6241 1336.69 79.9029 1318.3 76.1517 1299.77C52.929 1185.03 28.5543 1064.6 14.4808 945.522C-18.2233 668.808 4.84096 400.478 226.308 228.916C359.362 125.845 574.768 59.7242 821.596 26.9955C1068.34 -5.72193 1346.12 -5.02574 1603.64 25.2621C1861.18 55.5544 2098.24 115.423 2263.63 200.92C2346.33 243.67 2410.93 292.74 2451.27 347.566C2491.55 402.318 2507.65 462.812 2493.4 528.72C2448.25 737.646 2438.49 892.4 2443.41 1013.47C2447.6 1116.85 2462.51 1195.64 2475.14 1262.42C2477.3 1273.83 2479.39 1284.89 2481.35 1295.67C2494.8 1369.52 2502.06 1429.71 2482.76 1497.07C2463.44 1564.49 2417.44 1639.37 2323.67 1742.25C2136.53 1947.57 1943.84 1987.23 1759.12 1983.68C1691.64 1982.39 1625.31 1975.33 1560.62 1968.45C1536.62 1965.9 1512.85 1963.37 1489.33 1961.17C1402.52 1953.04 1319.22 1949.39 1241.39 1965.69C1086.64 1998.12 809.709 2034 571.568 2011.43C452.475 2000.14 343.354 1974.26 264.076 1926.23C184.935 1878.29 135.59 1808.34 135.59 1708.53Z" stroke="#DF7373" stroke-width="5"/>
</svg>
