<svg width="1728" height="449" viewBox="0 0 1728 449" fill="none" xmlns="http://www.w3.org/2000/svg">
<path d="M1277.31 27.4506C1673.62 104.762 1602.02 160.813 1664.46 224.595C1726.9 288.377 1836.8 407.381 1448.82 407.381C1060.84 407.381 674.905 499.04 343.163 407.381C-55.0274 297.363 -170.142 3.70638 343.163 27.4505C1146.4 64.6061 881.006 -49.8608 1277.31 27.4506Z" fill="#DF7373"/>
<path d="M1277.31 27.4506C1673.62 104.762 1602.02 160.813 1664.46 224.595C1726.9 288.377 1836.8 407.381 1448.82 407.381C1060.84 407.381 674.905 499.04 343.163 407.381C-55.0274 297.363 -170.142 3.70638 343.163 27.4505C1146.4 64.6061 881.006 -49.8608 1277.31 27.4506Z" fill="url(#paint0_linear)" fill-opacity="0.5"/>
<defs>
<linearGradient id="paint0_linear" x1="1665.25" y1="291.018" x2="-1449.65" y2="-192.388" gradientUnits="userSpaceOnUse">
<stop offset="0.241155" stop-color="#F7F3E3"/>
<stop offset="0.770938" stop-color="#E76F51"/>
<stop offset="1" stop-color="#E76F51"/>
</linearGradient>
</defs>
</svg>
